<?xml version="1.0" encoding="UTF-8" ?>
<!DOCTYPE svg PUBLIC "-//W3C//DTD SVG 1.1//EN" "http://www.w3.org/Graphics/SVG/1.1/DTD/svg11.dtd">
<svg width="128pt" height="128pt" viewBox="0 0 128 128" version="1.1" xmlns="http://www.w3.org/2000/svg">
<g id="#000000ff">
<path fill="#000000" opacity="1.00" d=" M 7.85 0.00 L 119.52 0.00 C 123.84 0.66 127.24 4.11 128.00 8.39 L 128.00 119.80 C 127.14 123.97 123.81 127.26 119.61 128.00 L 8.48 128.00 C 4.18 127.33 0.75 123.91 0.00 119.64 L 0.00 8.13 C 0.84 4.13 3.95 1.06 7.85 0.00 M 8.11 5.25 C 5.68 5.98 4.73 8.65 4.99 10.98 C 5.03 46.70 4.96 82.42 5.03 118.14 C 4.79 120.83 7.25 123.22 9.93 122.97 C 45.98 123.02 82.05 123.02 118.10 122.97 C 120.79 123.20 123.20 120.76 122.96 118.08 C 123.00 82.02 123.00 45.96 122.96 9.90 C 123.20 7.22 120.78 4.78 118.09 5.03 C 83.74 4.96 49.38 5.03 15.03 4.99 C 12.72 5.03 10.39 4.81 8.11 5.25 Z" />
<path fill="#000000" opacity="1.00" d=" M 14.43 10.64 C 16.50 9.80 18.79 10.05 20.97 9.98 C 32.66 10.11 44.37 9.83 56.06 10.11 C 58.84 10.24 58.79 14.90 56.00 14.91 C 43.29 15.16 30.57 14.88 17.86 15.03 C 16.18 14.80 14.77 16.26 15.05 17.94 C 14.91 30.64 15.19 43.35 14.93 56.05 C 14.83 58.81 10.24 58.82 10.12 56.06 C 9.90 43.38 10.07 30.68 10.03 17.99 C 9.82 14.92 11.59 11.85 14.43 10.64 Z" />
<path fill="#000000" opacity="1.00" d=" M 70.58 10.73 C 71.81 9.67 73.54 10.11 75.01 9.98 C 87.04 10.09 99.08 9.86 111.10 10.09 C 115.07 10.19 118.25 14.01 117.95 17.91 C 117.95 29.62 118.03 41.33 117.92 53.04 C 118.29 55.83 113.85 56.69 113.13 54.00 C 112.67 41.69 113.22 29.34 112.86 17.02 C 112.83 15.62 111.29 14.92 110.07 15.03 C 97.37 14.89 84.67 15.15 71.98 14.91 C 69.94 14.91 69.06 11.99 70.58 10.73 Z" />
<path fill="#000000" opacity="1.00" d=" M 79.38 20.49 C 85.28 18.56 92.04 19.34 97.29 22.71 C 103.19 26.36 107.07 33.06 107.23 40.01 C 107.56 47.56 103.44 55.04 96.96 58.89 C 90.40 62.95 81.59 62.95 75.02 58.89 C 68.24 54.87 64.07 46.86 64.82 38.99 C 65.36 30.63 71.41 23.03 79.38 20.49 M 80.36 25.45 C 74.31 27.61 69.91 33.64 69.75 40.07 C 69.11 49.37 77.83 57.82 87.10 56.91 C 96.37 56.53 103.91 47.01 101.99 37.88 C 100.58 28.23 89.44 21.73 80.36 25.45 Z" />
<path fill="#000000" opacity="1.00" d=" M 21.01 30.06 C 23.49 27.22 26.17 24.52 29.02 22.05 C 29.49 21.98 30.45 21.85 30.93 21.78 C 34.24 24.15 36.76 27.43 39.74 30.19 C 42.54 27.53 45.06 24.57 48.02 22.09 C 49.41 21.02 50.86 22.24 51.82 23.22 C 53.99 25.41 56.29 27.48 58.26 29.85 C 59.00 30.73 58.79 32.13 57.96 32.88 C 55.51 35.61 52.78 38.06 50.24 40.70 C 52.97 43.66 56.24 46.17 58.60 49.44 C 59.05 52.42 55.57 53.91 54.03 56.00 C 52.28 57.35 50.71 60.58 48.11 59.38 C 45.11 56.88 42.57 53.89 39.74 51.21 C 36.78 53.96 34.25 57.19 30.99 59.59 C 30.51 59.54 29.56 59.45 29.08 59.40 C 26.16 56.77 23.20 54.08 20.80 50.97 C 20.86 50.49 20.98 49.55 21.04 49.08 C 23.55 46.10 26.49 43.52 29.22 40.76 C 26.52 37.75 23.32 35.21 20.84 32.01 C 20.88 31.52 20.97 30.54 21.01 30.06 M 26.82 31.09 C 29.35 34.59 34.06 36.84 35.24 41.05 C 33.19 44.65 29.57 47.08 26.82 50.14 C 27.92 51.33 29.05 52.50 30.17 53.68 C 33.21 50.93 35.73 47.58 39.09 45.21 C 39.47 45.24 40.24 45.31 40.62 45.34 C 43.79 47.78 46.33 50.92 49.24 53.66 C 50.38 52.51 51.54 51.38 52.69 50.25 C 49.98 47.31 46.81 44.78 44.38 41.60 C 44.34 41.22 44.27 40.46 44.23 40.09 C 46.58 36.70 49.96 34.18 52.72 31.14 C 51.51 30.03 50.37 28.84 49.11 27.80 C 46.38 30.53 43.84 33.46 40.85 35.91 C 40.41 35.98 39.51 36.11 39.06 36.18 C 35.71 33.79 33.25 30.41 30.11 27.78 C 29.03 28.90 27.93 30.00 26.82 31.09 Z" />
<path fill="#000000" opacity="1.00" d=" M 81.41 30.46 C 87.43 27.53 95.36 31.35 96.83 37.87 C 98.62 43.90 94.26 50.69 88.09 51.70 C 82.31 52.98 76.10 48.80 75.03 43.00 C 73.87 37.99 76.70 32.49 81.41 30.46 M 83.15 35.15 C 79.08 37.03 78.62 43.32 82.37 45.76 C 86.09 48.72 92.19 45.73 92.22 41.00 C 92.64 36.42 87.16 32.85 83.15 35.15 Z" />
<path fill="#000000" opacity="1.00" d=" M 11.30 61.31 C 14.10 59.56 16.65 64.33 13.70 65.72 C 10.93 67.38 8.42 62.72 11.30 61.31 Z" />
<path fill="#000000" opacity="1.00" d=" M 114.30 61.23 C 116.06 60.39 118.38 61.90 117.93 63.91 C 117.69 65.82 115.08 66.75 113.75 65.31 C 112.50 64.18 112.82 62.00 114.30 61.23 Z" />
<path fill="#000000" opacity="1.00" d=" M 36.52 66.75 C 43.87 64.73 52.19 67.08 57.38 72.67 C 63.34 78.75 64.95 88.56 61.27 96.23 C 57.40 104.88 47.32 110.12 38.03 108.17 C 28.48 106.53 20.85 97.62 20.75 87.92 C 20.28 78.32 27.22 69.09 36.52 66.75 M 37.43 71.68 C 30.76 73.56 25.75 80.06 25.74 87.00 C 25.34 95.78 33.21 103.77 41.99 103.55 C 51.51 103.83 59.77 94.35 58.07 84.95 C 56.95 75.51 46.51 68.71 37.43 71.68 Z" />
<path fill="#000000" opacity="1.00" d=" M 70.45 75.57 C 72.92 73.14 75.18 70.46 77.96 68.39 C 78.44 68.45 79.40 68.56 79.88 68.62 C 82.92 71.07 85.43 74.11 88.27 76.79 C 91.20 74.03 93.78 70.88 96.97 68.40 C 97.45 68.44 98.40 68.52 98.87 68.56 C 101.65 70.95 104.25 73.58 106.69 76.31 C 107.91 77.44 106.99 79.17 105.99 80.06 C 103.76 82.50 101.18 84.60 99.06 87.14 C 101.10 90.49 104.93 92.66 107.15 96.02 C 107.11 96.50 107.01 97.47 106.97 97.95 C 104.49 100.81 101.78 103.50 98.94 105.99 C 98.46 106.04 97.49 106.15 97.01 106.20 C 93.77 103.77 91.23 100.54 88.24 97.82 C 85.44 100.48 82.91 103.45 79.94 105.93 C 77.18 107.24 75.52 103.70 73.65 102.28 C 72.15 100.33 68.98 98.88 69.35 96.07 C 71.77 92.82 75.00 90.27 77.75 87.30 C 75.13 84.53 72.21 82.03 69.75 79.11 C 68.74 77.99 69.45 76.41 70.45 75.57 M 75.30 77.77 C 78.01 80.69 81.18 83.21 83.61 86.39 C 83.64 86.76 83.71 87.49 83.75 87.86 C 81.47 91.31 78.01 93.80 75.27 96.88 C 76.45 97.99 77.64 99.10 78.83 100.21 C 81.63 97.50 84.17 94.50 87.19 92.04 C 87.65 92.00 88.56 91.91 89.02 91.87 C 92.35 94.23 94.72 97.67 97.94 100.18 C 98.98 99.08 100.06 98.01 101.15 96.96 C 98.69 93.40 94.02 91.20 92.73 87.03 C 94.72 83.36 98.47 80.94 101.20 77.79 C 100.06 76.65 98.94 75.48 97.82 74.33 C 94.82 77.07 92.28 80.33 89.00 82.76 C 88.60 82.74 87.80 82.70 87.40 82.68 C 84.20 80.24 81.67 77.07 78.73 74.34 C 77.59 75.49 76.45 76.63 75.30 77.77 Z" />
<path fill="#000000" opacity="1.00" d=" M 11.03 70.27 C 12.88 68.90 15.43 70.73 15.00 72.90 C 15.09 85.30 14.96 97.71 15.05 110.12 C 14.78 111.81 16.27 113.22 17.94 112.97 C 30.63 113.11 43.33 112.85 56.01 113.09 C 58.82 113.11 58.81 117.80 56.02 117.89 C 43.33 118.13 30.63 117.96 17.94 117.98 C 13.59 118.33 9.63 114.40 10.04 110.05 C 9.99 98.00 10.05 85.96 10.01 73.92 C 10.07 72.66 9.88 71.14 11.03 70.27 Z" />
<path fill="#000000" opacity="1.00" d=" M 113.50 73.27 C 114.81 71.36 118.19 72.57 117.91 74.89 C 118.03 86.61 117.95 98.34 117.95 110.07 C 118.31 114.38 114.44 118.30 110.12 117.98 C 98.07 118.04 86.02 117.97 73.97 118.01 C 72.41 118.07 70.18 117.95 69.85 115.98 C 69.43 114.18 71.19 112.72 72.89 113.01 C 85.29 112.94 97.70 113.07 110.10 112.97 C 111.76 113.21 113.20 111.75 112.94 110.09 C 112.99 99.41 112.97 88.73 112.94 78.05 C 113.09 76.47 112.64 74.69 113.50 73.27 Z" />
<path fill="#000000" opacity="1.00" d=" M 38.41 76.67 C 44.48 74.41 51.79 78.60 52.94 84.96 C 54.51 91.28 49.44 98.10 42.95 98.47 C 37.31 99.09 31.71 94.73 30.94 89.10 C 29.94 83.85 33.34 78.29 38.41 76.67 M 39.45 81.60 C 35.09 83.32 34.49 89.98 38.48 92.44 C 42.09 95.17 47.82 92.49 48.18 88.03 C 48.93 83.44 43.62 79.50 39.45 81.60 Z" />
</g>
<g id="#ede6f5ff">
<path fill="#ede6f5" opacity="1.00" d=" M 8.11 5.25 C 10.39 4.81 12.72 5.03 15.03 4.99 C 49.38 5.03 83.74 4.96 118.09 5.03 C 120.78 4.78 123.20 7.22 122.96 9.90 C 123.00 45.96 123.00 82.02 122.96 118.08 C 123.20 120.76 120.79 123.20 118.10 122.97 C 82.05 123.02 45.98 123.02 9.93 122.97 C 7.25 123.22 4.79 120.83 5.03 118.14 C 4.96 82.42 5.03 46.70 4.99 10.98 C 4.73 8.65 5.68 5.98 8.11 5.25 M 14.43 10.64 C 11.59 11.85 9.82 14.92 10.03 17.99 C 10.07 30.68 9.90 43.38 10.12 56.06 C 10.24 58.82 14.83 58.81 14.93 56.05 C 15.19 43.35 14.91 30.64 15.05 17.94 C 14.77 16.26 16.18 14.80 17.86 15.03 C 30.57 14.88 43.29 15.16 56.00 14.91 C 58.79 14.90 58.84 10.24 56.06 10.11 C 44.37 9.83 32.66 10.11 20.97 9.98 C 18.79 10.05 16.50 9.80 14.43 10.64 M 70.58 10.73 C 69.06 11.99 69.94 14.91 71.98 14.91 C 84.67 15.15 97.37 14.89 110.07 15.03 C 111.29 14.92 112.83 15.62 112.86 17.02 C 113.22 29.34 112.67 41.69 113.13 54.00 C 113.85 56.69 118.29 55.83 117.92 53.04 C 118.03 41.33 117.95 29.62 117.95 17.91 C 118.25 14.01 115.07 10.19 111.10 10.09 C 99.08 9.86 87.04 10.09 75.01 9.98 C 73.54 10.11 71.81 9.67 70.58 10.73 M 79.38 20.49 C 71.41 23.03 65.36 30.63 64.82 38.99 C 64.07 46.86 68.24 54.87 75.02 58.89 C 81.59 62.95 90.40 62.95 96.96 58.89 C 103.44 55.04 107.56 47.56 107.23 40.01 C 107.07 33.06 103.19 26.36 97.29 22.71 C 92.04 19.34 85.28 18.56 79.38 20.49 M 21.01 30.06 C 20.97 30.54 20.88 31.52 20.84 32.01 C 23.32 35.21 26.52 37.75 29.22 40.76 C 26.49 43.52 23.55 46.10 21.04 49.08 C 20.98 49.55 20.86 50.49 20.80 50.97 C 23.20 54.08 26.16 56.77 29.08 59.40 C 29.56 59.45 30.51 59.54 30.99 59.59 C 34.25 57.19 36.78 53.96 39.74 51.21 C 42.57 53.89 45.11 56.88 48.11 59.38 C 50.71 60.58 52.28 57.35 54.03 56.00 C 55.57 53.91 59.05 52.42 58.60 49.44 C 56.24 46.17 52.97 43.66 50.24 40.70 C 52.78 38.06 55.51 35.61 57.96 32.88 C 58.79 32.13 59.00 30.73 58.26 29.85 C 56.29 27.48 53.99 25.41 51.82 23.22 C 50.86 22.24 49.41 21.02 48.02 22.09 C 45.06 24.57 42.54 27.53 39.74 30.19 C 36.76 27.43 34.24 24.15 30.93 21.78 C 30.45 21.85 29.49 21.98 29.02 22.05 C 26.17 24.52 23.49 27.22 21.01 30.06 M 11.30 61.31 C 8.42 62.72 10.93 67.38 13.70 65.72 C 16.65 64.33 14.10 59.56 11.30 61.31 M 114.30 61.23 C 112.82 62.00 112.50 64.18 113.75 65.31 C 115.08 66.75 117.69 65.82 117.93 63.91 C 118.38 61.90 116.06 60.39 114.30 61.23 M 36.52 66.75 C 27.22 69.09 20.28 78.32 20.75 87.92 C 20.85 97.62 28.48 106.53 38.03 108.17 C 47.32 110.12 57.40 104.88 61.27 96.23 C 64.95 88.56 63.34 78.75 57.38 72.67 C 52.19 67.08 43.87 64.73 36.52 66.75 M 70.45 75.57 C 69.45 76.41 68.74 77.99 69.75 79.11 C 72.21 82.03 75.13 84.53 77.75 87.30 C 75.00 90.27 71.77 92.82 69.35 96.07 C 68.98 98.88 72.15 100.33 73.65 102.28 C 75.52 103.70 77.18 107.24 79.94 105.93 C 82.91 103.45 85.44 100.48 88.24 97.82 C 91.23 100.54 93.77 103.77 97.01 106.20 C 97.49 106.15 98.46 106.04 98.94 105.99 C 101.78 103.50 104.49 100.81 106.97 97.95 C 107.01 97.47 107.11 96.50 107.15 96.02 C 104.93 92.66 101.10 90.49 99.06 87.14 C 101.18 84.60 103.76 82.50 105.99 80.06 C 106.99 79.17 107.91 77.44 106.69 76.31 C 104.25 73.58 101.65 70.95 98.87 68.56 C 98.40 68.52 97.45 68.44 96.97 68.40 C 93.78 70.88 91.20 74.03 88.27 76.79 C 85.43 74.11 82.92 71.07 79.88 68.62 C 79.40 68.56 78.44 68.45 77.96 68.39 C 75.18 70.46 72.92 73.14 70.45 75.57 M 11.03 70.27 C 9.88 71.14 10.07 72.66 10.01 73.92 C 10.05 85.96 9.99 98.00 10.04 110.05 C 9.63 114.40 13.59 118.33 17.94 117.98 C 30.63 117.96 43.33 118.13 56.02 117.89 C 58.81 117.80 58.82 113.11 56.01 113.09 C 43.33 112.85 30.63 113.11 17.94 112.97 C 16.27 113.22 14.78 111.81 15.05 110.12 C 14.96 97.71 15.09 85.30 15.00 72.90 C 15.43 70.73 12.88 68.90 11.03 70.27 M 113.50 73.27 C 112.64 74.69 113.09 76.47 112.94 78.05 C 112.97 88.73 112.99 99.41 112.94 110.09 C 113.20 111.75 111.76 113.21 110.10 112.97 C 97.70 113.07 85.29 112.94 72.89 113.01 C 71.19 112.72 69.43 114.18 69.85 115.98 C 70.18 117.95 72.41 118.07 73.97 118.01 C 86.02 117.97 98.07 118.04 110.12 117.98 C 114.44 118.30 118.31 114.38 117.95 110.07 C 117.95 98.34 118.03 86.61 117.91 74.89 C 118.19 72.57 114.81 71.36 113.50 73.27 Z" />
<path fill="#ede6f5" opacity="1.00" d=" M 83.15 35.15 C 87.16 32.85 92.64 36.42 92.22 41.00 C 92.19 45.73 86.09 48.72 82.37 45.76 C 78.62 43.32 79.08 37.03 83.15 35.15 Z" />
<path fill="#ede6f5" opacity="1.00" d=" M 39.45 81.60 C 43.62 79.50 48.93 83.44 48.18 88.03 C 47.82 92.49 42.09 95.17 38.48 92.44 C 34.49 89.98 35.09 83.32 39.45 81.60 Z" />
</g>
<g id="#f05f90ff">
<path fill="#f05f90" opacity="1.00" d=" M 80.36 25.45 C 89.44 21.73 100.58 28.23 101.99 37.88 C 103.91 47.01 96.37 56.53 87.10 56.91 C 77.83 57.82 69.11 49.37 69.75 40.07 C 69.91 33.64 74.31 27.61 80.36 25.45 M 81.41 30.46 C 76.70 32.49 73.87 37.99 75.03 43.00 C 76.10 48.80 82.31 52.98 88.09 51.70 C 94.26 50.69 98.62 43.90 96.83 37.87 C 95.36 31.35 87.43 27.53 81.41 30.46 Z" />
<path fill="#f05f90" opacity="1.00" d=" M 37.43 71.68 C 46.51 68.71 56.95 75.51 58.07 84.95 C 59.77 94.35 51.51 103.83 41.99 103.55 C 33.21 103.77 25.34 95.78 25.74 87.00 C 25.75 80.06 30.76 73.56 37.43 71.68 M 38.41 76.67 C 33.34 78.29 29.94 83.85 30.94 89.10 C 31.71 94.73 37.31 99.09 42.95 98.47 C 49.44 98.10 54.51 91.28 52.94 84.96 C 51.79 78.60 44.48 74.41 38.41 76.67 Z" />
</g>
<g id="#52607eff">
<path fill="#52607e" opacity="1.00" d=" M 26.82 31.09 C 27.93 30.00 29.03 28.90 30.11 27.78 C 33.25 30.41 35.71 33.79 39.06 36.18 C 39.51 36.11 40.41 35.98 40.85 35.91 C 43.84 33.46 46.38 30.53 49.11 27.80 C 50.37 28.84 51.51 30.03 52.72 31.14 C 49.96 34.18 46.58 36.70 44.23 40.09 C 44.27 40.46 44.34 41.22 44.38 41.60 C 46.81 44.78 49.98 47.31 52.69 50.25 C 51.54 51.38 50.38 52.51 49.24 53.66 C 46.33 50.92 43.79 47.78 40.62 45.34 C 40.24 45.31 39.47 45.24 39.09 45.21 C 35.73 47.58 33.21 50.93 30.17 53.68 C 29.05 52.50 27.92 51.33 26.82 50.14 C 29.57 47.08 33.19 44.65 35.24 41.05 C 34.06 36.84 29.35 34.59 26.82 31.09 Z" />
<path fill="#52607e" opacity="1.00" d=" M 75.30 77.77 C 76.45 76.63 77.59 75.49 78.73 74.34 C 81.67 77.07 84.20 80.24 87.40 82.68 C 87.80 82.70 88.60 82.74 89.00 82.76 C 92.28 80.33 94.82 77.07 97.82 74.33 C 98.94 75.48 100.06 76.65 101.20 77.79 C 98.47 80.94 94.72 83.36 92.73 87.03 C 94.02 91.20 98.69 93.40 101.15 96.96 C 100.06 98.01 98.98 99.08 97.94 100.18 C 94.72 97.67 92.35 94.23 89.02 91.87 C 88.56 91.91 87.65 92.00 87.19 92.04 C 84.17 94.50 81.63 97.50 78.83 100.21 C 77.64 99.10 76.45 97.99 75.27 96.88 C 78.01 93.80 81.47 91.31 83.75 87.86 C 83.71 87.49 83.64 86.76 83.61 86.39 C 81.18 83.21 78.01 80.69 75.30 77.77 Z" />
</g>
</svg>
