<?xml version="1.0" encoding="UTF-8" ?>
<!DOCTYPE svg PUBLIC "-//W3C//DTD SVG 1.1//EN" "http://www.w3.org/Graphics/SVG/1.1/DTD/svg11.dtd">
<svg width="128pt" height="128pt" viewBox="0 0 128 128" version="1.1" xmlns="http://www.w3.org/2000/svg">
<g id="#000000ff">
<path fill="#000000" opacity="1.00" d=" M 62.83 0.00 L 65.42 0.00 C 67.17 2.22 68.14 4.91 69.76 7.21 C 71.74 9.82 75.15 10.51 77.72 12.34 C 78.73 13.35 78.69 15.54 77.28 16.21 C 75.19 17.52 72.77 18.29 70.86 19.88 C 68.57 21.86 67.85 24.93 66.21 27.36 C 65.36 28.56 63.49 28.51 62.45 27.59 C 60.66 25.00 59.96 21.62 57.36 19.63 C 55.31 17.91 52.43 17.42 50.52 15.56 C 48.84 12.33 52.94 11.13 55.08 10.03 C 59.31 8.29 60.73 3.64 62.83 0.00 M 58.49 14.14 C 60.72 15.76 62.66 17.71 64.28 19.94 C 65.88 17.70 67.84 15.75 70.07 14.13 C 67.86 12.51 65.88 10.60 64.31 8.34 C 62.66 10.54 60.70 12.50 58.49 14.14 Z" />
<path fill="#000000" opacity="1.00" d=" M 21.18 13.96 C 22.43 13.10 24.61 13.24 25.22 14.81 C 26.67 17.77 28.02 21.24 31.37 22.51 C 33.39 23.43 36.90 24.61 35.58 27.54 C 33.61 29.94 29.71 30.08 27.91 32.85 C 26.04 34.82 26.15 38.85 22.98 39.31 C 19.78 39.01 19.84 34.97 18.04 32.99 C 16.26 30.17 12.44 29.94 10.31 27.66 C 8.78 24.31 12.99 23.32 15.13 22.17 C 18.50 20.63 19.31 16.78 21.18 13.96 M 18.21 26.37 C 19.93 27.76 21.50 29.33 22.92 31.03 C 24.35 29.35 25.91 27.78 27.61 26.36 C 25.92 24.93 24.35 23.37 22.91 21.68 C 21.48 23.37 19.91 24.94 18.21 26.37 Z" />
<path fill="#000000" opacity="1.00" d=" M 103.21 14.00 C 104.35 13.06 106.57 13.25 107.18 14.74 C 108.62 17.49 109.72 20.83 112.78 22.21 C 114.52 23.40 117.59 23.62 117.85 26.17 C 117.75 29.55 113.39 29.42 111.41 31.35 C 108.55 33.12 108.61 37.23 105.99 39.06 C 102.40 40.28 101.91 35.65 100.42 33.55 C 98.75 30.34 94.66 30.02 92.33 27.68 C 90.75 24.31 95.04 23.31 97.19 22.14 C 100.54 20.61 101.27 16.74 103.21 14.00 M 100.20 26.37 C 101.94 27.75 103.50 29.33 104.94 31.03 C 106.34 29.34 107.90 27.77 109.61 26.38 C 107.92 24.94 106.34 23.37 104.91 21.67 C 103.49 23.38 101.90 24.94 100.20 26.37 Z" />
<path fill="#000000" opacity="1.00" d=" M 34.40 34.41 C 35.34 32.81 37.36 33.10 38.93 32.98 C 55.64 33.00 72.35 33.03 89.06 32.96 C 90.47 33.08 92.05 32.83 93.33 33.57 C 95.85 36.14 97.58 39.36 99.72 42.25 C 103.36 47.92 107.93 53.03 110.98 59.04 C 109.48 63.44 106.08 66.87 103.76 70.85 C 101.68 73.62 100.32 77.97 96.19 77.91 C 95.92 77.18 95.38 75.71 95.11 74.98 C 97.89 70.50 100.90 66.16 103.80 61.76 C 97.94 61.71 92.08 61.72 86.23 61.76 C 81.48 77.70 76.47 93.56 71.82 109.52 C 76.15 103.51 80.00 97.15 84.27 91.09 C 85.06 89.52 86.84 89.44 88.34 89.06 C 88.63 89.79 89.21 91.26 89.50 91.99 C 83.79 101.05 77.64 109.83 71.77 118.78 C 69.66 121.92 67.74 125.21 65.18 128.00 L 63.44 128.00 C 60.71 125.15 58.76 121.69 56.56 118.44 C 45.08 101.24 33.60 84.03 22.12 66.84 C 20.49 64.29 18.40 61.94 17.52 59.00 C 19.34 55.18 22.19 51.97 24.51 48.45 C 27.87 43.81 30.92 38.95 34.40 34.41 M 37.91 37.99 C 33.56 44.25 29.16 50.47 24.83 56.74 C 30.86 56.74 36.89 56.71 42.92 56.75 C 48.27 50.53 53.57 44.26 58.88 38.00 C 51.89 37.99 44.90 38.01 37.91 37.99 M 69.69 38.01 C 74.94 44.26 80.30 50.40 85.49 56.69 C 91.57 56.78 97.66 56.73 103.74 56.72 C 99.39 50.48 95.01 44.27 90.68 38.01 C 83.68 37.99 76.69 37.99 69.69 38.01 M 49.53 56.73 C 59.36 56.73 69.19 56.75 79.03 56.72 C 74.11 50.94 69.20 45.16 64.28 39.38 C 59.37 45.17 54.45 50.95 49.53 56.73 M 24.76 61.74 C 35.43 77.83 46.19 93.85 56.88 109.93 C 52.09 93.83 47.17 77.78 42.26 61.72 C 36.42 61.74 30.59 61.71 24.76 61.74 M 47.52 61.74 C 53.10 80.12 58.67 98.50 64.28 116.87 C 69.86 98.49 75.45 80.12 81.02 61.74 C 69.85 61.73 58.69 61.73 47.52 61.74 Z" />
<path fill="#000000" opacity="1.00" d=" M 89.63 82.65 C 90.94 81.41 92.60 80.76 94.34 80.35 C 94.44 81.79 95.29 83.28 94.79 84.72 C 93.82 85.74 92.26 85.48 91.01 85.78 C 90.55 84.74 90.09 83.70 89.63 82.65 Z" />
</g>
<g id="#ffe26bff">
<path fill="#ffe26b" opacity="1.00" d=" M 58.49 14.14 C 60.70 12.50 62.66 10.54 64.31 8.34 C 65.88 10.60 67.86 12.51 70.07 14.13 C 67.84 15.75 65.88 17.70 64.28 19.94 C 62.66 17.71 60.72 15.76 58.49 14.14 Z" />
<path fill="#ffe26b" opacity="1.00" d=" M 18.21 26.37 C 19.91 24.94 21.48 23.37 22.91 21.68 C 24.35 23.37 25.92 24.93 27.61 26.36 C 25.91 27.78 24.35 29.35 22.92 31.03 C 21.50 29.33 19.93 27.76 18.21 26.37 Z" />
<path fill="#ffe26b" opacity="1.00" d=" M 100.20 26.37 C 101.90 24.94 103.49 23.38 104.91 21.67 C 106.34 23.37 107.92 24.94 109.61 26.38 C 107.90 27.77 106.34 29.34 104.94 31.03 C 103.50 29.33 101.94 27.75 100.20 26.37 Z" />
</g>
<g id="#43b0fcff">
<path fill="#43b0fc" opacity="1.00" d=" M 37.91 37.99 C 44.90 38.01 51.89 37.99 58.88 38.00 C 53.57 44.26 48.27 50.53 42.92 56.75 C 36.89 56.71 30.86 56.74 24.83 56.74 C 29.16 50.47 33.56 44.25 37.91 37.99 Z" />
<path fill="#43b0fc" opacity="1.00" d=" M 69.69 38.01 C 76.69 37.99 83.68 37.99 90.68 38.01 C 95.01 44.27 99.39 50.48 103.74 56.72 C 97.66 56.73 91.57 56.78 85.49 56.69 C 80.30 50.40 74.94 44.26 69.69 38.01 Z" />
</g>
<g id="#ede6f5ff">
<path fill="#ede6f5" opacity="1.00" d=" M 49.53 56.73 C 54.45 50.95 59.37 45.17 64.28 39.38 C 69.20 45.16 74.11 50.94 79.03 56.72 C 69.19 56.75 59.36 56.73 49.53 56.73 Z" />
</g>
<g id="#52607eff">
<path fill="#52607e" opacity="1.00" d=" M 24.76 61.74 C 30.59 61.71 36.42 61.74 42.26 61.72 C 47.17 77.78 52.09 93.83 56.88 109.93 C 46.19 93.85 35.43 77.83 24.76 61.74 Z" />
<path fill="#52607e" opacity="1.00" d=" M 86.23 61.76 C 92.08 61.72 97.94 61.71 103.80 61.76 C 100.90 66.16 97.89 70.50 95.11 74.98 C 95.38 75.71 95.92 77.18 96.19 77.91 C 95.56 78.72 94.95 79.53 94.34 80.35 C 92.60 80.76 90.94 81.41 89.63 82.65 C 90.09 83.70 90.55 84.74 91.01 85.78 C 90.11 86.87 89.23 87.97 88.34 89.06 C 86.84 89.44 85.06 89.52 84.27 91.09 C 80.00 97.15 76.15 103.51 71.82 109.52 C 76.47 93.56 81.48 77.70 86.23 61.76 Z" />
</g>
<g id="#00d2d7ff">
<path fill="#00d2d7" opacity="1.00" d=" M 47.52 61.74 C 58.69 61.73 69.85 61.73 81.02 61.74 C 75.45 80.12 69.86 98.49 64.28 116.87 C 58.67 98.50 53.10 80.12 47.52 61.74 Z" />
</g>
</svg>
