<?xml version="1.0" encoding="UTF-8" ?>
<!DOCTYPE svg PUBLIC "-//W3C//DTD SVG 1.1//EN" "http://www.w3.org/Graphics/SVG/1.1/DTD/svg11.dtd">
<svg width="128pt" height="128pt" viewBox="0 0 128 128" version="1.1" xmlns="http://www.w3.org/2000/svg">
<g id="#000000ff">
<path fill="#000000" opacity="1.00" d=" M 30.33 0.00 L 98.42 0.00 C 103.70 0.78 107.94 5.52 107.69 10.92 C 107.74 46.30 107.74 81.69 107.69 117.07 C 107.94 122.41 103.80 127.05 98.64 128.00 L 30.41 128.00 C 24.86 127.60 20.21 122.66 20.53 117.02 C 20.44 84.01 20.54 51.00 20.48 17.99 C 20.52 14.40 20.18 10.72 21.08 7.21 C 22.30 3.14 26.22 0.47 30.33 0.00 M 28.54 5.60 C 26.11 6.70 25.34 9.50 25.49 11.96 C 25.51 34.55 25.50 57.13 25.50 79.72 C 51.23 79.75 76.97 79.72 102.71 79.73 C 102.70 56.81 102.76 33.89 102.69 10.98 C 102.94 7.85 100.30 4.87 97.10 5.05 C 76.40 4.89 55.70 5.09 34.99 4.96 C 32.85 5.05 30.57 4.76 28.54 5.60 M 25.50 84.73 C 25.53 95.49 25.45 106.25 25.52 117.01 C 25.18 120.54 28.50 123.42 31.93 122.99 C 53.31 123.01 74.69 122.99 96.07 123.00 C 99.18 123.39 102.56 121.21 102.63 117.90 C 102.86 106.85 102.64 95.79 102.72 84.73 C 76.98 84.73 51.24 84.73 25.50 84.73 Z" />
<path fill="#000000" opacity="1.00" d=" M 33.08 14.99 C 32.97 12.26 36.12 12.53 38.00 12.50 C 56.02 12.60 74.04 12.46 92.06 12.57 C 94.10 12.15 95.53 14.00 95.20 15.92 C 95.30 25.93 95.14 35.95 95.26 45.96 C 95.37 48.03 94.99 50.09 94.12 51.97 C 93.38 51.73 91.91 51.25 91.17 51.00 C 89.97 50.08 90.36 48.35 90.19 47.04 C 90.23 37.21 90.22 27.37 90.22 17.53 C 72.81 17.53 55.41 17.53 38.00 17.53 C 38.00 34.11 38.00 50.69 38.00 67.27 C 40.56 67.26 43.13 67.26 45.69 67.27 C 45.91 64.10 44.91 60.46 46.51 57.62 C 49.53 56.29 53.08 57.13 56.31 56.94 C 56.49 53.67 55.64 50.10 57.00 47.03 C 59.77 45.77 63.00 46.46 65.97 46.28 C 67.80 46.50 70.17 45.85 71.53 47.46 C 72.26 50.56 71.87 53.78 71.91 56.94 C 75.13 57.04 78.50 56.46 81.61 57.47 C 83.42 60.32 82.24 64.07 82.53 67.28 C 85.94 67.27 89.34 67.18 92.75 67.32 C 95.29 67.14 96.14 71.00 93.82 71.97 C 92.24 72.32 90.61 72.29 89.01 72.31 C 71.32 72.17 53.62 72.39 35.93 72.21 C 33.46 72.55 32.74 69.98 32.99 68.05 C 33.07 50.36 32.88 32.67 33.08 14.99 M 61.29 51.33 C 60.98 54.62 62.21 58.47 60.38 61.37 C 57.36 62.54 53.88 61.73 50.68 61.92 C 50.69 63.70 50.69 65.48 50.68 67.26 C 59.63 67.27 68.59 67.26 77.54 67.27 C 77.53 65.48 77.53 63.70 77.54 61.92 C 74.32 61.68 70.72 62.63 67.74 61.28 C 66.09 58.36 67.20 54.59 66.93 51.33 C 65.05 51.33 63.17 51.34 61.29 51.33 Z" />
<path fill="#000000" opacity="1.00" d=" M 47.38 23.47 C 57.57 22.98 67.81 23.43 78.02 23.25 C 79.64 23.23 82.27 23.18 82.42 25.38 C 82.65 29.11 82.68 32.87 82.39 36.59 C 82.28 38.29 80.33 38.63 78.98 38.59 C 69.31 38.63 59.65 38.58 49.98 38.62 C 48.53 38.58 46.43 38.70 45.87 36.96 C 45.49 33.67 45.67 30.34 45.69 27.04 C 45.66 25.70 45.77 23.84 47.38 23.47 M 50.68 28.27 C 50.68 30.04 50.68 31.82 50.68 33.60 C 59.63 33.60 68.59 33.60 77.54 33.60 C 77.54 31.82 77.54 30.04 77.54 28.27 C 68.59 28.26 59.64 28.27 50.68 28.27 Z" />
<path fill="#000000" opacity="1.00" d=" M 91.75 63.27 C 89.79 62.38 89.75 59.68 91.71 58.76 C 93.54 57.98 95.01 59.20 95.35 60.99 C 95.04 62.76 93.56 63.99 91.75 63.27 Z" />
<path fill="#000000" opacity="1.00" d=" M 85.34 88.51 C 90.74 85.21 98.39 89.72 98.23 96.01 C 98.63 102.46 90.75 107.17 85.27 103.75 C 79.38 100.81 79.41 91.39 85.34 88.51 M 87.29 93.15 C 84.97 94.70 85.50 98.85 88.24 99.62 C 90.59 100.58 93.49 98.58 93.21 95.99 C 93.29 93.07 89.52 91.40 87.29 93.15 Z" />
<path fill="#000000" opacity="1.00" d=" M 36.03 96.03 C 36.39 94.11 35.38 90.77 37.98 90.16 C 41.31 89.82 44.70 89.85 48.03 90.18 C 50.32 91.15 49.40 94.10 49.74 96.02 C 51.59 96.39 54.40 95.48 55.49 97.51 C 56.04 101.11 56.08 104.87 55.45 108.46 C 54.13 110.23 51.62 109.44 49.75 109.77 C 49.38 111.68 50.38 115.06 47.77 115.64 C 44.36 115.93 40.85 116.07 37.47 115.50 C 35.49 114.36 36.38 111.62 36.03 109.77 C 34.11 109.43 31.17 110.34 30.17 108.08 C 29.81 104.73 29.78 101.31 30.16 97.96 C 30.81 95.41 34.12 96.38 36.03 96.03 M 41.21 95.00 C 40.88 96.92 41.81 99.68 39.76 100.87 C 38.19 101.21 36.57 101.13 34.97 101.21 C 34.97 102.34 34.97 103.46 34.97 104.59 C 36.93 104.92 39.73 103.95 40.89 106.09 C 41.18 107.65 41.14 109.24 41.22 110.82 C 42.33 110.81 43.45 110.80 44.56 110.80 C 44.89 108.84 43.93 106.03 46.09 104.89 C 47.64 104.62 49.23 104.66 50.80 104.59 C 50.80 103.46 50.81 102.34 50.81 101.21 C 48.88 100.90 46.19 101.80 44.94 99.83 C 44.55 98.25 44.65 96.61 44.56 95.00 C 43.45 95.00 42.33 95.00 41.21 95.00 Z" />
<path fill="#000000" opacity="1.00" d=" M 74.16 101.13 C 80.43 99.46 86.59 106.31 84.29 112.36 C 82.57 118.55 73.65 120.45 69.56 115.50 C 65.02 110.93 67.81 102.22 74.16 101.13 M 74.31 106.32 C 69.95 108.33 73.59 115.48 77.79 112.89 C 82.01 110.84 78.49 103.97 74.31 106.32 Z" />
</g>
<g id="#52607eff">
<path fill="#52607e" opacity="1.00" d=" M 28.54 5.60 C 30.57 4.76 32.85 5.05 34.99 4.96 C 55.70 5.09 76.40 4.89 97.10 5.05 C 100.30 4.87 102.94 7.85 102.69 10.98 C 102.76 33.89 102.70 56.81 102.71 79.73 C 76.97 79.72 51.23 79.75 25.50 79.72 C 25.50 57.13 25.51 34.55 25.49 11.96 C 25.34 9.50 26.11 6.70 28.54 5.60 M 33.08 14.99 C 32.88 32.67 33.07 50.36 32.99 68.05 C 32.74 69.98 33.46 72.55 35.93 72.21 C 53.62 72.39 71.32 72.17 89.01 72.31 C 90.61 72.29 92.24 72.32 93.82 71.97 C 96.14 71.00 95.29 67.14 92.75 67.32 C 92.72 66.23 92.68 65.14 92.65 64.05 L 91.75 63.27 C 93.56 63.99 95.04 62.76 95.35 60.99 C 95.01 59.20 93.54 57.98 91.71 58.76 L 92.67 57.91 C 92.70 56.10 92.72 54.28 92.70 52.47 C 92.32 52.10 91.55 51.37 91.17 51.00 C 91.91 51.25 93.38 51.73 94.12 51.97 C 94.99 50.09 95.37 48.03 95.26 45.96 C 95.14 35.95 95.30 25.93 95.20 15.92 C 95.53 14.00 94.10 12.15 92.06 12.57 C 74.04 12.46 56.02 12.60 38.00 12.50 C 36.12 12.53 32.97 12.26 33.08 14.99 Z" />
</g>
<g id="#e7ebedff">
<path fill="#e7ebed" opacity="1.00" d=" M 38.00 17.53 C 55.41 17.53 72.81 17.53 90.22 17.53 C 90.22 27.37 90.23 37.21 90.19 47.04 C 90.36 48.35 89.97 50.08 91.17 51.00 C 91.55 51.37 92.32 52.10 92.70 52.47 C 92.72 54.28 92.70 56.10 92.67 57.91 L 91.71 58.76 C 89.75 59.68 89.79 62.38 91.75 63.27 L 92.65 64.05 C 92.68 65.14 92.72 66.23 92.75 67.32 C 89.34 67.18 85.94 67.27 82.53 67.28 C 82.24 64.07 83.42 60.32 81.61 57.47 C 78.50 56.46 75.13 57.04 71.91 56.94 C 71.87 53.78 72.26 50.56 71.53 47.46 C 70.17 45.85 67.80 46.50 65.97 46.28 C 63.00 46.46 59.77 45.77 57.00 47.03 C 55.64 50.10 56.49 53.67 56.31 56.94 C 53.08 57.13 49.53 56.29 46.51 57.62 C 44.91 60.46 45.91 64.10 45.69 67.27 C 43.13 67.26 40.56 67.26 38.00 67.27 C 38.00 50.69 38.00 34.11 38.00 17.53 M 47.38 23.47 C 45.77 23.84 45.66 25.70 45.69 27.04 C 45.67 30.34 45.49 33.67 45.87 36.96 C 46.43 38.70 48.53 38.58 49.98 38.62 C 59.65 38.58 69.31 38.63 78.98 38.59 C 80.33 38.63 82.28 38.29 82.39 36.59 C 82.68 32.87 82.65 29.11 82.42 25.38 C 82.27 23.18 79.64 23.23 78.02 23.25 C 67.81 23.43 57.57 22.98 47.38 23.47 Z" />
<path fill="#e7ebed" opacity="1.00" d=" M 41.21 95.00 C 42.33 95.00 43.45 95.00 44.56 95.00 C 44.65 96.61 44.55 98.25 44.94 99.83 C 46.19 101.80 48.88 100.90 50.81 101.21 C 50.81 102.34 50.80 103.46 50.80 104.59 C 49.23 104.66 47.64 104.62 46.09 104.89 C 43.93 106.03 44.89 108.84 44.56 110.80 C 43.45 110.80 42.33 110.81 41.22 110.82 C 41.14 109.24 41.18 107.65 40.89 106.09 C 39.73 103.95 36.93 104.92 34.97 104.59 C 34.97 103.46 34.97 102.34 34.97 101.21 C 36.57 101.13 38.19 101.21 39.76 100.87 C 41.81 99.68 40.88 96.92 41.21 95.00 Z" />
</g>
<g id="#00d2d7ff">
<path fill="#00d2d7" opacity="1.00" d=" M 50.68 28.27 C 59.64 28.27 68.59 28.26 77.54 28.27 C 77.54 30.04 77.54 31.82 77.54 33.60 C 68.59 33.60 59.63 33.60 50.68 33.60 C 50.68 31.82 50.68 30.04 50.68 28.27 Z" />
<path fill="#00d2d7" opacity="1.00" d=" M 74.31 106.32 C 78.49 103.97 82.01 110.84 77.79 112.89 C 73.59 115.48 69.95 108.33 74.31 106.32 Z" />
</g>
<g id="#f05f90ff">
<path fill="#f05f90" opacity="1.00" d=" M 61.29 51.33 C 63.17 51.34 65.05 51.33 66.93 51.33 C 67.20 54.59 66.09 58.36 67.74 61.28 C 70.72 62.63 74.32 61.68 77.54 61.92 C 77.53 63.70 77.53 65.48 77.54 67.27 C 68.59 67.26 59.63 67.27 50.68 67.26 C 50.69 65.48 50.69 63.70 50.68 61.92 C 53.88 61.73 57.36 62.54 60.38 61.37 C 62.21 58.47 60.98 54.62 61.29 51.33 Z" />
</g>
<g id="#43b0fcff">
<path fill="#43b0fc" opacity="1.00" d=" M 25.50 84.73 C 51.24 84.73 76.98 84.73 102.72 84.73 C 102.64 95.79 102.86 106.85 102.63 117.90 C 102.56 121.21 99.18 123.39 96.07 123.00 C 74.69 122.99 53.31 123.01 31.93 122.99 C 28.50 123.42 25.18 120.54 25.52 117.01 C 25.45 106.25 25.53 95.49 25.50 84.73 M 85.34 88.51 C 79.41 91.39 79.38 100.81 85.27 103.75 C 90.75 107.17 98.63 102.46 98.23 96.01 C 98.39 89.72 90.74 85.21 85.34 88.51 M 36.03 96.03 C 34.12 96.38 30.81 95.41 30.16 97.96 C 29.78 101.31 29.81 104.73 30.17 108.08 C 31.17 110.34 34.11 109.43 36.03 109.77 C 36.38 111.62 35.49 114.36 37.47 115.50 C 40.85 116.07 44.36 115.93 47.77 115.64 C 50.38 115.06 49.38 111.68 49.75 109.77 C 51.62 109.44 54.13 110.23 55.45 108.46 C 56.08 104.87 56.04 101.11 55.49 97.51 C 54.40 95.48 51.59 96.39 49.74 96.02 C 49.40 94.10 50.32 91.15 48.03 90.18 C 44.70 89.85 41.31 89.82 37.98 90.16 C 35.38 90.77 36.39 94.11 36.03 96.03 M 74.16 101.13 C 67.81 102.22 65.02 110.93 69.56 115.50 C 73.65 120.45 82.57 118.55 84.29 112.36 C 86.59 106.31 80.43 99.46 74.16 101.13 Z" />
</g>
<g id="#ffe681ff">
<path fill="#ffe681" opacity="1.00" d=" M 87.29 93.15 C 89.52 91.40 93.29 93.07 93.21 95.99 C 93.49 98.58 90.59 100.58 88.24 99.62 C 85.50 98.85 84.97 94.70 87.29 93.15 Z" />
</g>
</svg>
