<?xml version="1.0" encoding="UTF-8" ?>
<!DOCTYPE svg PUBLIC "-//W3C//DTD SVG 1.1//EN" "http://www.w3.org/Graphics/SVG/1.1/DTD/svg11.dtd">
<svg width="128pt" height="128pt" viewBox="0 0 128 128" version="1.1" xmlns="http://www.w3.org/2000/svg">
<g id="#000000ff">
<path fill="#000000" opacity="1.00" d=" M 60.65 0.00 L 67.27 0.00 C 83.13 0.91 98.63 7.72 109.68 19.20 C 120.64 30.19 127.08 45.29 128.00 60.74 L 128.00 67.18 C 127.07 83.82 119.59 100.00 107.20 111.19 C 96.41 121.25 82.02 127.09 67.34 128.00 L 60.78 128.00 C 45.09 127.12 29.80 120.44 18.75 109.24 C 7.57 98.23 0.93 82.99 0.00 67.36 L 0.00 60.14 C 1.07 45.16 7.25 30.53 17.78 19.75 C 28.87 7.99 44.54 0.92 60.65 0.00 M 55.47 5.61 C 35.54 8.45 17.64 22.20 9.82 40.75 C 3.76 54.63 3.40 70.85 8.90 84.97 C 14.92 100.96 28.27 113.98 44.42 119.58 C 55.90 123.74 68.69 124.10 80.39 120.63 C 94.74 116.53 107.31 106.70 114.83 93.81 C 122.71 80.51 125.10 64.03 121.03 49.08 C 117.35 34.86 108.11 22.20 95.72 14.32 C 83.93 6.70 69.36 3.56 55.47 5.61 Z" />
<path fill="#000000" opacity="1.00" d=" M 44.81 13.58 C 62.80 6.55 84.55 10.22 99.02 23.07 C 100.45 24.23 99.77 25.99 98.61 27.07 C 96.45 27.69 94.81 25.86 93.17 24.79 C 81.38 15.72 65.27 12.80 50.98 16.80 C 37.71 20.40 26.23 29.92 20.15 42.24 C 14.64 53.19 13.55 66.24 17.08 77.97 C 20.66 90.14 29.23 100.72 40.34 106.82 C 51.88 113.33 66.14 114.71 78.74 110.67 C 90.56 106.97 100.80 98.57 106.78 87.73 C 113.41 75.92 114.84 61.25 110.34 48.44 C 109.68 46.31 108.36 43.97 109.83 41.85 C 111.31 41.25 113.14 41.56 113.73 43.21 C 118.69 54.70 119.22 67.98 115.54 79.92 C 111.58 92.82 102.57 104.08 90.84 110.77 C 78.35 118.07 62.84 119.89 48.97 115.81 C 35.68 112.00 24.08 102.82 17.22 90.84 C 9.93 78.34 8.11 62.84 12.18 48.96 C 16.75 32.93 29.21 19.43 44.81 13.58 Z" />
<path fill="#000000" opacity="1.00" d=" M 46.01 36.06 C 47.58 28.13 54.94 21.85 63.03 21.57 C 70.71 21.04 78.31 25.95 81.07 33.11 C 82.93 37.49 82.66 42.44 81.12 46.87 C 85.31 45.44 89.94 45.07 94.15 46.64 C 101.36 49.08 106.55 56.37 106.45 63.99 C 106.56 71.63 101.34 78.92 94.11 81.36 C 89.92 82.93 85.30 82.55 81.13 81.13 C 82.65 85.56 82.93 90.51 81.07 94.88 C 78.19 102.37 70.02 107.34 62.04 106.34 C 54.36 105.63 47.58 99.57 46.03 92.01 C 45.13 88.39 45.73 84.63 46.86 81.13 C 43.39 82.24 39.67 82.87 36.07 81.98 C 28.49 80.45 22.37 73.68 21.65 65.98 C 20.64 58.02 25.57 49.85 33.02 46.95 C 37.42 45.06 42.41 45.33 46.87 46.86 C 45.74 43.39 45.14 39.67 46.01 36.06 M 59.24 27.44 C 53.13 29.64 49.34 36.69 50.99 43.01 C 52.44 49.98 60.13 54.78 67.04 52.96 C 74.35 51.46 79.19 43.12 76.78 36.03 C 74.78 28.84 66.17 24.58 59.24 27.44 M 35.30 51.45 C 28.86 53.69 25.03 61.28 27.12 67.79 C 28.99 74.75 37.08 79.11 43.92 76.76 C 50.75 74.80 55.00 66.85 52.72 60.08 C 50.74 52.93 42.21 48.68 35.30 51.45 M 83.28 51.50 C 77.18 53.71 73.40 60.74 75.04 67.05 C 76.48 74.00 84.12 78.81 91.01 77.03 C 98.36 75.57 103.25 67.21 100.83 60.09 C 98.84 52.89 90.21 48.63 83.28 51.50 M 57.10 57.11 C 58.70 61.56 58.70 66.43 57.10 70.89 C 61.56 69.30 66.43 69.30 70.89 70.89 C 69.28 66.43 69.29 61.56 70.89 57.10 C 66.43 58.70 61.56 58.71 57.10 57.11 M 59.32 75.52 C 53.22 77.68 49.38 84.66 50.95 90.97 C 52.33 97.98 59.98 102.86 66.92 101.10 C 74.32 99.65 79.24 91.22 76.75 84.07 C 74.73 76.94 66.21 72.74 59.32 75.52 Z" />
<path fill="#000000" opacity="1.00" d=" M 63.28 30.29 C 67.00 30.04 67.68 35.06 69.61 37.41 C 70.73 40.39 74.86 43.58 72.70 46.76 C 69.02 48.10 64.85 47.12 60.98 47.43 C 58.69 47.24 54.93 48.20 54.38 45.02 C 55.82 41.16 58.32 37.83 60.21 34.20 C 61.14 32.86 61.73 31.02 63.28 30.29 M 63.87 38.02 C 62.94 39.44 62.12 40.93 61.27 42.40 C 63.10 42.40 64.92 42.39 66.75 42.38 C 65.82 40.91 65.12 39.25 63.87 38.02 Z" />
<path fill="#000000" opacity="1.00" d=" M 103.72 32.20 C 106.63 29.74 109.92 33.82 107.45 36.44 C 104.75 36.95 102.41 34.97 103.72 32.20 Z" />
<path fill="#000000" opacity="1.00" d=" M 86.40 55.55 C 91.20 54.47 96.30 58.28 96.62 63.19 C 97.23 68.08 92.89 72.80 87.96 72.60 C 83.41 72.68 79.34 68.60 79.44 64.05 C 79.34 60.02 82.44 56.25 86.40 55.55 M 85.50 61.45 C 83.56 63.24 84.49 66.72 86.96 67.47 C 89.90 68.58 93.01 64.78 91.15 62.18 C 90.08 60.17 87.04 59.79 85.50 61.45 Z" />
<path fill="#000000" opacity="1.00" d=" M 33.27 57.27 C 35.55 55.95 38.45 56.72 40.99 56.49 C 43.03 56.78 45.98 55.80 47.16 58.05 C 47.54 61.99 47.55 66.01 47.15 69.95 C 46.84 70.27 46.20 70.90 45.89 71.21 C 41.76 71.45 37.23 72.14 33.31 70.77 C 31.70 66.91 32.62 62.21 32.72 58.04 L 33.27 57.27 M 37.51 61.53 C 37.51 63.18 37.51 64.82 37.51 66.47 C 39.13 66.47 40.75 66.47 42.38 66.47 C 42.38 64.82 42.38 63.18 42.38 61.53 C 40.75 61.53 39.13 61.53 37.51 61.53 Z" />
<path fill="#000000" opacity="1.00" d=" M 57.97 81.95 C 60.25 79.92 62.37 83.05 63.99 84.38 C 65.64 83.05 67.70 79.95 70.02 81.94 C 72.19 84.21 69.04 86.39 67.68 88.06 C 69.03 89.71 72.13 91.81 70.08 94.11 C 67.79 96.22 65.65 93.09 64.00 91.73 C 62.37 93.09 60.14 96.26 57.90 94.08 C 55.85 91.78 59.01 89.68 60.35 88.04 C 58.97 86.42 55.79 84.22 57.97 81.95 Z" />
</g>
<g id="#52607eff">
<path fill="#52607e" opacity="1.00" d=" M 55.47 5.61 C 69.36 3.56 83.93 6.70 95.72 14.32 C 108.11 22.20 117.35 34.86 121.03 49.08 C 125.10 64.03 122.71 80.51 114.83 93.81 C 107.31 106.70 94.74 116.53 80.39 120.63 C 68.69 124.10 55.90 123.74 44.42 119.58 C 28.27 113.98 14.92 100.96 8.90 84.97 C 3.40 70.85 3.76 54.63 9.82 40.75 C 17.64 22.20 35.54 8.45 55.47 5.61 M 44.81 13.58 C 29.21 19.43 16.75 32.93 12.18 48.96 C 8.11 62.84 9.93 78.34 17.22 90.84 C 24.08 102.82 35.68 112.00 48.97 115.81 C 62.84 119.89 78.35 118.07 90.84 110.77 C 102.57 104.08 111.58 92.82 115.54 79.92 C 119.22 67.98 118.69 54.70 113.73 43.21 C 113.14 41.56 111.31 41.25 109.83 41.85 L 110.13 41.14 C 109.26 39.56 108.37 38.00 107.45 36.44 C 109.92 33.82 106.63 29.74 103.72 32.20 L 103.86 31.39 C 102.50 29.87 101.09 28.40 99.66 26.96 L 98.61 27.07 C 99.77 25.99 100.45 24.23 99.02 23.07 C 84.55 10.22 62.80 6.55 44.81 13.58 Z" />
</g>
<g id="#ede6f5ff">
<path fill="#ede6f5" opacity="1.00" d=" M 50.98 16.80 C 65.27 12.80 81.38 15.72 93.17 24.79 C 94.81 25.86 96.45 27.69 98.61 27.07 L 99.66 26.96 C 101.09 28.40 102.50 29.87 103.86 31.39 L 103.72 32.20 C 102.41 34.97 104.75 36.95 107.45 36.44 C 108.37 38.00 109.26 39.56 110.13 41.14 L 109.83 41.85 C 108.36 43.97 109.68 46.31 110.34 48.44 C 114.84 61.25 113.41 75.92 106.78 87.73 C 100.80 98.57 90.56 106.97 78.74 110.67 C 66.14 114.71 51.88 113.33 40.34 106.82 C 29.23 100.72 20.66 90.14 17.08 77.97 C 13.55 66.24 14.64 53.19 20.15 42.24 C 26.23 29.92 37.71 20.40 50.98 16.80 M 46.01 36.06 C 45.14 39.67 45.74 43.39 46.87 46.86 C 42.41 45.33 37.42 45.06 33.02 46.95 C 25.57 49.85 20.64 58.02 21.65 65.98 C 22.37 73.68 28.49 80.45 36.07 81.98 C 39.67 82.87 43.39 82.24 46.86 81.13 C 45.73 84.63 45.13 88.39 46.03 92.01 C 47.58 99.57 54.36 105.63 62.04 106.34 C 70.02 107.34 78.19 102.37 81.07 94.88 C 82.93 90.51 82.65 85.56 81.13 81.13 C 85.30 82.55 89.92 82.93 94.11 81.36 C 101.34 78.92 106.56 71.63 106.45 63.99 C 106.55 56.37 101.36 49.08 94.15 46.64 C 89.94 45.07 85.31 45.44 81.12 46.87 C 82.66 42.44 82.93 37.49 81.07 33.11 C 78.31 25.95 70.71 21.04 63.03 21.57 C 54.94 21.85 47.58 28.13 46.01 36.06 Z" />
<path fill="#ede6f5" opacity="1.00" d=" M 63.87 38.02 C 65.12 39.25 65.82 40.91 66.75 42.38 C 64.92 42.39 63.10 42.40 61.27 42.40 C 62.12 40.93 62.94 39.44 63.87 38.02 Z" />
<path fill="#ede6f5" opacity="1.00" d=" M 57.10 57.11 C 61.56 58.71 66.43 58.70 70.89 57.10 C 69.29 61.56 69.28 66.43 70.89 70.89 C 66.43 69.30 61.56 69.30 57.10 70.89 C 58.70 66.43 58.70 61.56 57.10 57.11 Z" />
<path fill="#ede6f5" opacity="1.00" d=" M 85.50 61.45 C 87.04 59.79 90.08 60.17 91.15 62.18 C 93.01 64.78 89.90 68.58 86.96 67.47 C 84.49 66.72 83.56 63.24 85.50 61.45 Z" />
<path fill="#ede6f5" opacity="1.00" d=" M 37.51 61.53 C 39.13 61.53 40.75 61.53 42.38 61.53 C 42.38 63.18 42.38 64.82 42.38 66.47 C 40.75 66.47 39.13 66.47 37.51 66.47 C 37.51 64.82 37.51 63.18 37.51 61.53 Z" />
</g>
<g id="#f05f90ff">
<path fill="#f05f90" opacity="1.00" d=" M 59.24 27.44 C 66.17 24.58 74.78 28.84 76.78 36.03 C 79.19 43.12 74.35 51.46 67.04 52.96 C 60.13 54.78 52.44 49.98 50.99 43.01 C 49.34 36.69 53.13 29.64 59.24 27.44 M 63.28 30.29 C 61.73 31.02 61.14 32.86 60.21 34.20 C 58.32 37.83 55.82 41.16 54.38 45.02 C 54.93 48.20 58.69 47.24 60.98 47.43 C 64.85 47.12 69.02 48.10 72.70 46.76 C 74.86 43.58 70.73 40.39 69.61 37.41 C 67.68 35.06 67.00 30.04 63.28 30.29 Z" />
</g>
<g id="#7ccafdff">
<path fill="#7ccafd" opacity="1.00" d=" M 35.30 51.45 C 42.21 48.68 50.74 52.93 52.72 60.08 C 55.00 66.85 50.75 74.80 43.92 76.76 C 37.08 79.11 28.99 74.75 27.12 67.79 C 25.03 61.28 28.86 53.69 35.30 51.45 M 33.27 57.27 L 32.72 58.04 C 32.62 62.21 31.70 66.91 33.31 70.77 C 37.23 72.14 41.76 71.45 45.89 71.21 C 46.20 70.90 46.84 70.27 47.15 69.95 C 47.55 66.01 47.54 61.99 47.16 58.05 C 45.98 55.80 43.03 56.78 40.99 56.49 C 38.45 56.72 35.55 55.95 33.27 57.27 Z" />
</g>
<g id="#00d2d7ff">
<path fill="#00d2d7" opacity="1.00" d=" M 83.28 51.50 C 90.21 48.63 98.84 52.89 100.83 60.09 C 103.25 67.21 98.36 75.57 91.01 77.03 C 84.12 78.81 76.48 74.00 75.04 67.05 C 73.40 60.74 77.18 53.71 83.28 51.50 M 86.40 55.55 C 82.44 56.25 79.34 60.02 79.44 64.05 C 79.34 68.60 83.41 72.68 87.96 72.60 C 92.89 72.80 97.23 68.08 96.62 63.19 C 96.30 58.28 91.20 54.47 86.40 55.55 Z" />
</g>
<g id="#ffe681ff">
<path fill="#ffe681" opacity="1.00" d=" M 59.32 75.52 C 66.21 72.74 74.73 76.94 76.75 84.07 C 79.24 91.22 74.32 99.65 66.92 101.10 C 59.98 102.86 52.33 97.98 50.95 90.97 C 49.38 84.66 53.22 77.68 59.32 75.52 M 57.97 81.95 C 55.79 84.22 58.97 86.42 60.35 88.04 C 59.01 89.68 55.85 91.78 57.90 94.08 C 60.14 96.26 62.37 93.09 64.00 91.73 C 65.65 93.09 67.79 96.22 70.08 94.11 C 72.13 91.81 69.03 89.71 67.68 88.06 C 69.04 86.39 72.19 84.21 70.02 81.94 C 67.70 79.95 65.64 83.05 63.99 84.38 C 62.37 83.05 60.25 79.92 57.97 81.95 Z" />
</g>
</svg>
