<?xml version="1.0" encoding="UTF-8" ?>
<!DOCTYPE svg PUBLIC "-//W3C//DTD SVG 1.1//EN" "http://www.w3.org/Graphics/SVG/1.1/DTD/svg11.dtd">
<svg width="128pt" height="128pt" viewBox="0 0 128 128" version="1.1" xmlns="http://www.w3.org/2000/svg">
<g id="#000000ff">
<path fill="#000000" opacity="1.00" d=" M 22.36 0.00 L 27.50 0.00 C 40.09 13.05 51.89 26.87 64.28 40.12 C 76.52 26.77 88.46 13.12 100.94 0.00 L 128.00 0.00 L 128.00 27.61 C 114.44 40.31 100.49 52.60 86.82 65.19 C 89.33 67.94 91.86 70.68 94.42 73.38 C 96.15 71.87 97.75 69.85 100.16 69.46 C 104.75 68.58 108.56 72.62 110.44 76.35 C 112.09 80.59 108.55 84.06 105.79 86.74 C 109.04 89.83 112.15 93.06 115.33 96.21 C 117.49 95.89 119.84 95.11 121.89 96.27 C 124.50 97.71 126.41 100.10 128.00 102.56 L 128.00 107.09 C 124.89 112.13 119.98 115.68 116.03 120.02 C 113.01 122.82 110.53 126.44 106.57 128.00 L 103.86 128.00 C 98.80 126.14 94.09 120.77 96.46 115.11 C 93.30 111.90 90.07 108.75 86.89 105.56 C 84.34 108.21 81.18 111.64 77.07 110.35 C 73.81 109.09 70.96 106.28 69.78 102.98 C 68.69 99.44 71.27 96.47 73.59 94.19 C 70.44 91.38 67.29 88.57 64.12 85.79 C 61.04 88.58 57.94 91.37 54.89 94.19 C 57.42 96.58 60.05 99.94 58.51 103.63 C 56.67 107.14 53.28 110.85 48.97 110.57 C 45.78 110.33 43.75 107.57 41.59 105.55 C 38.40 108.73 35.19 111.89 32.06 115.12 C 34.31 120.77 29.71 126.13 24.64 128.00 L 22.34 128.00 C 20.33 127.49 18.61 126.29 17.20 124.80 C 12.40 119.93 7.53 115.14 2.72 110.28 C 0.77 108.45 -0.29 105.65 0.50 103.02 C 2.43 98.26 7.69 93.95 13.04 96.24 C 16.34 93.12 19.48 89.86 22.71 86.67 C 20.39 84.28 17.18 81.74 17.68 78.00 C 18.23 74.23 21.48 71.31 24.73 69.67 C 28.40 68.26 31.69 70.86 34.08 73.35 C 36.60 70.59 39.10 67.83 41.60 65.06 C 28.57 53.24 15.56 41.40 2.50 29.60 C 1.55 28.60 0.10 27.62 0.31 26.03 C 0.33 18.69 0.56 11.35 0.71 4.01 C 0.61 2.56 1.17 0.40 3.05 0.57 C 9.47 0.14 15.93 0.37 22.36 0.00 M 5.67 5.43 C 5.62 12.14 5.26 18.85 5.38 25.56 C 18.71 37.35 31.74 49.47 44.97 61.36 C 46.82 58.95 49.66 56.97 50.90 54.29 C 41.24 44.26 31.09 34.68 21.49 24.60 C 19.58 22.29 23.56 19.22 25.36 21.64 C 35.16 31.29 44.84 41.07 54.56 50.79 C 56.68 48.50 58.76 46.18 60.86 43.88 C 49.15 30.92 37.36 18.03 25.67 5.05 C 19.00 5.13 12.33 5.29 5.67 5.43 M 37.56 76.99 C 39.24 78.64 40.90 80.31 42.47 82.07 C 62.95 62.04 82.96 41.52 103.37 21.42 C 105.80 18.99 109.23 23.51 106.39 25.34 C 86.37 45.48 66.23 65.51 46.17 85.61 C 47.88 87.30 49.57 88.99 51.26 90.69 C 75.25 68.90 99.28 47.16 123.22 25.31 C 123.05 18.68 122.95 12.05 122.80 5.42 C 116.16 5.30 109.52 5.15 102.87 5.03 C 81.11 29.02 59.31 52.98 37.56 76.99 M 77.45 73.68 C 80.32 76.44 82.98 79.40 85.96 82.05 C 87.56 80.31 89.24 78.66 90.92 77.00 C 88.31 74.18 85.71 71.36 83.08 68.55 C 81.20 70.25 79.32 71.96 77.45 73.68 M 26.44 74.35 C 24.85 75.51 22.79 76.91 22.61 79.03 C 24.67 82.01 27.61 84.24 30.07 86.89 C 36.43 93.04 42.39 99.65 48.99 105.53 C 51.48 105.58 55.77 101.58 52.76 99.27 C 45.13 91.57 37.40 83.96 29.78 76.24 C 28.80 75.44 27.90 74.02 26.44 74.35 M 99.50 75.51 C 92.29 82.62 85.20 89.86 77.99 96.97 C 76.76 98.19 75.47 99.37 74.54 100.85 C 74.58 102.92 76.65 104.20 78.07 105.42 C 79.59 106.19 80.68 104.47 81.69 103.66 C 89.33 95.94 97.05 88.31 104.69 80.60 C 108.05 78.14 101.79 72.08 99.50 75.51 M 67.86 82.44 C 71.00 85.17 74.10 87.94 77.21 90.71 C 78.92 89.02 80.62 87.30 82.30 85.58 C 79.44 82.75 76.59 79.89 73.75 77.04 C 71.75 78.80 69.79 80.60 67.86 82.44 M 16.67 99.77 C 20.62 103.70 24.53 107.67 28.51 111.57 C 31.68 108.36 34.88 105.19 38.07 101.99 C 34.13 98.05 30.22 94.09 26.27 90.17 C 23.08 93.38 19.85 96.55 16.67 99.77 M 90.41 101.98 C 93.60 105.19 96.80 108.38 100.00 111.58 C 103.94 107.64 107.88 103.70 111.82 99.76 C 108.62 96.56 105.43 93.36 102.22 90.17 C 98.29 94.11 94.34 98.04 90.41 101.98 M 8.26 101.16 C 6.66 102.39 3.83 104.80 6.23 106.69 C 11.59 112.03 16.82 117.52 22.34 122.69 C 25.04 123.69 29.62 118.72 26.38 116.58 C 20.92 111.27 15.81 105.54 10.04 100.58 C 9.59 100.72 8.70 101.01 8.26 101.16 M 117.40 101.33 C 112.29 106.24 107.37 111.36 102.31 116.33 C 101.44 117.20 100.05 118.55 101.26 119.80 C 102.46 121.14 103.82 123.41 105.94 122.85 C 111.32 117.96 116.25 112.57 121.50 107.51 C 122.61 106.49 124.15 104.75 122.52 103.39 C 121.28 102.06 119.26 99.30 117.40 101.33 Z" />
<path fill="#000000" opacity="1.00" d=" M 14.56 14.51 C 16.74 11.79 20.78 15.94 18.06 18.03 C 15.97 20.21 12.29 16.65 14.56 14.51 Z" />
<path fill="#000000" opacity="1.00" d=" M 110.29 14.33 C 112.49 12.16 116.11 15.54 113.94 17.81 C 111.86 20.45 107.80 16.62 110.29 14.33 Z" />
</g>
<g id="#c7cde4ff">
<path fill="#c7cde4" opacity="1.00" d=" M 5.67 5.43 C 12.33 5.29 19.00 5.13 25.67 5.05 C 37.36 18.03 49.15 30.92 60.86 43.88 C 58.76 46.18 56.68 48.50 54.56 50.79 C 44.84 41.07 35.16 31.29 25.36 21.64 C 23.56 19.22 19.58 22.29 21.49 24.60 C 31.09 34.68 41.24 44.26 50.90 54.29 C 49.66 56.97 46.82 58.95 44.97 61.36 C 31.74 49.47 18.71 37.35 5.38 25.56 C 5.26 18.85 5.62 12.14 5.67 5.43 M 14.56 14.51 C 12.29 16.65 15.97 20.21 18.06 18.03 C 20.78 15.94 16.74 11.79 14.56 14.51 Z" />
<path fill="#c7cde4" opacity="1.00" d=" M 77.45 73.68 C 79.32 71.96 81.20 70.25 83.08 68.55 C 85.71 71.36 88.31 74.18 90.92 77.00 C 89.24 78.66 87.56 80.31 85.96 82.05 C 82.98 79.40 80.32 76.44 77.45 73.68 Z" />
<path fill="#c7cde4" opacity="1.00" d=" M 67.86 82.44 C 69.79 80.60 71.75 78.80 73.75 77.04 C 76.59 79.89 79.44 82.75 82.30 85.58 C 80.62 87.30 78.92 89.02 77.21 90.71 C 74.10 87.94 71.00 85.17 67.86 82.44 Z" />
</g>
<g id="#ede6f5ff">
<path fill="#ede6f5" opacity="1.00" d=" M 37.56 76.99 C 59.31 52.98 81.11 29.02 102.87 5.03 C 109.52 5.15 116.16 5.30 122.80 5.42 C 122.95 12.05 123.05 18.68 123.22 25.31 C 99.28 47.16 75.25 68.90 51.26 90.69 C 49.57 88.99 47.88 87.30 46.17 85.61 C 66.23 65.51 86.37 45.48 106.39 25.34 C 109.23 23.51 105.80 18.99 103.37 21.42 C 82.96 41.52 62.95 62.04 42.47 82.07 C 40.90 80.31 39.24 78.64 37.56 76.99 M 110.29 14.33 C 107.80 16.62 111.86 20.45 113.94 17.81 C 116.11 15.54 112.49 12.16 110.29 14.33 Z" />
</g>
<g id="#52607eff">
<path fill="#52607e" opacity="1.00" d=" M 26.44 74.35 C 27.90 74.02 28.80 75.44 29.78 76.24 C 37.40 83.96 45.13 91.57 52.76 99.27 C 55.77 101.58 51.48 105.58 48.99 105.53 C 42.39 99.65 36.43 93.04 30.07 86.89 C 27.61 84.24 24.67 82.01 22.61 79.03 C 22.79 76.91 24.85 75.51 26.44 74.35 Z" />
<path fill="#52607e" opacity="1.00" d=" M 99.50 75.51 C 101.79 72.08 108.05 78.14 104.69 80.60 C 97.05 88.31 89.33 95.94 81.69 103.66 C 80.68 104.47 79.59 106.19 78.07 105.42 C 76.65 104.20 74.58 102.92 74.54 100.85 C 75.47 99.37 76.76 98.19 77.99 96.97 C 85.20 89.86 92.29 82.62 99.50 75.51 Z" />
</g>
<g id="#ffe681ff">
<path fill="#ffe681" opacity="1.00" d=" M 16.67 99.77 C 19.85 96.55 23.08 93.38 26.27 90.17 C 30.22 94.09 34.13 98.05 38.07 101.99 C 34.88 105.19 31.68 108.36 28.51 111.57 C 24.53 107.67 20.62 103.70 16.67 99.77 Z" />
<path fill="#ffe681" opacity="1.00" d=" M 90.41 101.98 C 94.34 98.04 98.29 94.11 102.22 90.17 C 105.43 93.36 108.62 96.56 111.82 99.76 C 107.88 103.70 103.94 107.64 100.00 111.58 C 96.80 108.38 93.60 105.19 90.41 101.98 Z" />
</g>
<g id="#f05f90ff">
<path fill="#f05f90" opacity="1.00" d=" M 8.26 101.16 C 8.70 101.01 9.59 100.72 10.04 100.58 C 15.81 105.54 20.92 111.27 26.38 116.58 C 29.62 118.72 25.04 123.69 22.34 122.69 C 16.82 117.52 11.59 112.03 6.23 106.69 C 3.83 104.80 6.66 102.39 8.26 101.16 Z" />
<path fill="#f05f90" opacity="1.00" d=" M 117.40 101.33 C 119.26 99.30 121.28 102.06 122.52 103.39 C 124.15 104.75 122.61 106.49 121.50 107.51 C 116.25 112.57 111.32 117.96 105.94 122.85 C 103.82 123.41 102.46 121.14 101.26 119.80 C 100.05 118.55 101.44 117.20 102.31 116.33 C 107.37 111.36 112.29 106.24 117.40 101.33 Z" />
</g>
</svg>
