<?xml version="1.0" encoding="UTF-8" ?>
<!DOCTYPE svg PUBLIC "-//W3C//DTD SVG 1.1//EN" "http://www.w3.org/Graphics/SVG/1.1/DTD/svg11.dtd">
<svg width="128pt" height="128pt" viewBox="0 0 128 128" version="1.1" xmlns="http://www.w3.org/2000/svg">
<g id="#000000ff">
<path fill="#000000" opacity="1.00" d=" M 86.02 0.00 L 88.62 0.00 C 90.19 2.26 91.27 4.85 93.08 6.95 C 95.02 8.85 97.69 9.73 99.75 11.47 C 100.76 12.51 100.73 13.51 99.65 14.48 C 97.60 16.18 94.92 17.00 93.04 18.92 C 91.29 20.98 90.42 23.65 88.56 25.62 C 85.69 26.82 84.82 23.11 83.52 21.37 C 81.89 17.56 77.58 16.53 74.71 13.99 C 73.53 11.21 77.35 10.31 78.99 9.00 C 82.69 7.29 84.22 3.36 86.02 0.00 M 82.89 12.92 C 84.49 14.39 86.02 15.93 87.46 17.54 C 88.90 15.92 90.43 14.39 92.02 12.92 C 90.42 11.47 88.88 9.92 87.46 8.29 C 86.02 9.91 84.49 11.46 82.89 12.92 Z" />
<path fill="#000000" opacity="1.00" d=" M 42.13 3.91 C 43.27 1.79 45.98 2.42 47.95 2.22 C 54.66 2.29 61.37 2.22 68.08 2.24 C 69.79 2.45 72.25 1.94 73.09 3.93 C 72.86 8.21 71.49 12.31 70.52 16.46 C 72.68 17.74 75.92 18.52 76.46 21.39 C 76.96 24.09 76.99 26.92 76.39 29.60 C 75.46 32.66 71.18 32.81 70.02 35.65 C 72.13 37.18 74.66 37.94 76.99 39.06 C 91.65 45.45 102.24 60.09 103.92 75.96 C 105.50 89.05 101.21 102.71 92.33 112.47 C 84.09 121.78 72.02 127.41 59.62 128.00 L 54.67 128.00 C 41.39 126.93 28.67 120.22 20.64 109.54 C 12.47 99.07 9.24 85.00 11.96 72.01 C 14.59 58.71 23.40 46.75 35.40 40.40 C 38.63 38.67 42.18 37.59 45.36 35.75 C 43.99 33.04 40.24 32.63 38.96 29.88 C 38.22 27.02 38.27 23.96 38.89 21.09 C 39.58 18.46 42.60 17.74 44.62 16.46 C 43.70 12.30 42.34 8.19 42.13 3.91 M 47.64 7.27 C 48.39 10.60 49.14 13.93 49.89 17.27 C 55.00 17.27 60.11 17.27 65.22 17.27 C 66.00 13.93 66.79 10.60 67.58 7.27 C 60.93 7.27 54.29 7.26 47.64 7.27 M 43.54 22.31 C 43.54 24.36 43.54 26.40 43.56 28.45 C 52.94 28.48 62.31 28.49 71.69 28.44 C 71.72 26.40 71.72 24.35 71.73 22.31 C 62.33 22.23 52.94 22.22 43.54 22.31 M 50.30 33.40 C 49.92 35.68 49.90 38.34 47.98 39.96 C 46.02 41.60 43.44 42.14 41.16 43.18 C 27.54 48.80 17.65 62.28 16.25 76.93 C 14.81 89.51 19.66 102.54 28.85 111.23 C 37.47 119.74 49.97 124.11 62.02 122.74 C 74.45 121.53 86.07 114.27 92.72 103.73 C 99.66 93.02 101.14 79.05 96.74 67.09 C 92.77 55.95 83.78 46.69 72.66 42.60 C 70.56 41.71 68.10 41.15 66.64 39.25 C 65.26 37.65 65.33 35.43 64.98 33.47 C 60.09 33.45 55.20 33.52 50.30 33.40 Z" />
<path fill="#000000" opacity="1.00" d=" M 103.40 28.41 C 106.20 27.80 106.82 31.26 108.00 33.01 C 109.37 36.36 112.99 37.50 115.83 39.24 C 117.40 40.08 117.29 42.73 115.61 43.42 C 112.71 45.06 109.18 46.35 107.87 49.72 C 106.89 51.84 105.28 55.71 102.33 53.60 C 100.34 50.69 99.37 46.70 95.78 45.25 C 93.93 44.07 90.16 43.26 91.30 40.28 C 92.79 38.08 95.96 37.71 97.88 35.87 C 100.46 33.97 100.52 29.83 103.40 28.41 M 99.46 41.27 C 101.04 42.72 102.55 44.23 104.01 45.79 C 105.47 44.22 106.98 42.71 108.56 41.27 C 106.99 39.82 105.48 38.32 104.01 36.77 C 102.54 38.32 101.03 39.82 99.46 41.27 Z" />
<path fill="#000000" opacity="1.00" d=" M 51.50 44.66 C 60.58 43.16 70.23 45.09 77.91 50.20 C 88.16 56.81 94.69 68.76 94.64 80.97 C 94.91 94.77 86.61 108.21 74.25 114.28 C 64.36 119.30 52.18 119.51 42.13 114.82 C 33.29 110.77 26.20 103.07 22.88 93.93 C 19.18 84.00 20.03 72.48 25.23 63.24 C 30.56 53.48 40.53 46.45 51.50 44.66 M 41.59 53.48 C 33.18 58.20 27.47 66.91 25.85 76.35 C 33.34 78.51 38.67 85.91 46.97 85.54 C 52.89 86.11 58.07 82.93 62.66 79.62 C 70.60 74.18 81.60 74.45 89.73 79.37 C 89.41 77.29 89.08 75.21 88.71 73.14 C 80.88 69.84 71.93 69.92 63.97 72.68 C 61.50 73.67 59.81 69.37 62.22 68.32 C 69.73 64.77 78.51 65.20 86.45 66.88 C 84.46 63.54 82.28 60.24 79.35 57.64 C 69.45 48.21 53.30 46.43 41.59 53.48 M 60.82 86.79 C 54.92 90.74 47.28 91.40 40.52 89.60 C 34.98 87.92 30.63 83.85 25.48 81.35 C 25.78 90.93 30.10 100.39 37.75 106.29 C 48.49 115.11 65.06 115.49 76.25 107.26 C 83.54 102.24 87.90 94.02 89.64 85.49 C 85.43 82.35 80.37 80.11 75.00 80.65 C 69.58 80.62 65.14 83.98 60.82 86.79 Z" />
<path fill="#000000" opacity="1.00" d=" M 54.32 73.23 C 55.36 71.97 57.61 72.05 58.37 73.60 C 59.90 75.48 57.01 78.60 55.04 77.02 C 53.58 76.35 53.36 74.43 54.32 73.23 Z" />
</g>
<g id="#ffdd52ff">
<path fill="#ffdd52" opacity="1.00" d=" M 47.64 7.27 C 54.29 7.26 60.93 7.27 67.58 7.27 C 66.79 10.60 66.00 13.93 65.22 17.27 C 60.11 17.27 55.00 17.27 49.89 17.27 C 49.14 13.93 48.39 10.60 47.64 7.27 Z" />
</g>
<g id="#7ccafdff">
<path fill="#7ccafd" opacity="1.00" d=" M 82.89 12.92 C 84.49 11.46 86.02 9.91 87.46 8.29 C 88.88 9.92 90.42 11.47 92.02 12.92 C 90.43 14.39 88.90 15.92 87.46 17.54 C 86.02 15.93 84.49 14.39 82.89 12.92 Z" />
</g>
<g id="#39b5f7ff">
<path fill="#39b5f7" opacity="1.00" d=" M 43.54 22.31 C 52.94 22.22 62.33 22.23 71.73 22.31 C 71.72 24.35 71.72 26.40 71.69 28.44 C 62.31 28.49 52.94 28.48 43.56 28.45 C 43.54 26.40 43.54 24.36 43.54 22.31 Z" />
<path fill="#39b5f7" opacity="1.00" d=" M 99.46 41.27 C 101.03 39.82 102.54 38.32 104.01 36.77 C 105.48 38.32 106.99 39.82 108.56 41.27 C 106.98 42.71 105.47 44.22 104.01 45.79 C 102.55 44.23 101.04 42.72 99.46 41.27 Z" />
</g>
<g id="#c7cde4ff">
<path fill="#c7cde4" opacity="1.00" d=" M 50.30 33.40 C 55.20 33.52 60.09 33.45 64.98 33.47 C 65.33 35.43 65.26 37.65 66.64 39.25 C 68.10 41.15 70.56 41.71 72.66 42.60 C 83.78 46.69 92.77 55.95 96.74 67.09 C 101.14 79.05 99.66 93.02 92.72 103.73 C 86.07 114.27 74.45 121.53 62.02 122.74 C 49.97 124.11 37.47 119.74 28.85 111.23 C 19.66 102.54 14.81 89.51 16.25 76.93 C 17.65 62.28 27.54 48.80 41.16 43.18 C 43.44 42.14 46.02 41.60 47.98 39.96 C 49.90 38.34 49.92 35.68 50.30 33.40 M 51.50 44.66 C 40.53 46.45 30.56 53.48 25.23 63.24 C 20.03 72.48 19.18 84.00 22.88 93.93 C 26.20 103.07 33.29 110.77 42.13 114.82 C 52.18 119.51 64.36 119.30 74.25 114.28 C 86.61 108.21 94.91 94.77 94.64 80.97 C 94.69 68.76 88.16 56.81 77.91 50.20 C 70.23 45.09 60.58 43.16 51.50 44.66 Z" />
</g>
<g id="#ede6f5ff">
<path fill="#ede6f5" opacity="1.00" d=" M 41.59 53.48 C 53.30 46.43 69.45 48.21 79.35 57.64 C 82.28 60.24 84.46 63.54 86.45 66.88 C 78.51 65.20 69.73 64.77 62.22 68.32 C 59.81 69.37 61.50 73.67 63.97 72.68 C 71.93 69.92 80.88 69.84 88.71 73.14 C 89.08 75.21 89.41 77.29 89.73 79.37 C 81.60 74.45 70.60 74.18 62.66 79.62 C 58.07 82.93 52.89 86.11 46.97 85.54 C 38.67 85.91 33.34 78.51 25.85 76.35 C 27.47 66.91 33.18 58.20 41.59 53.48 M 54.32 73.23 C 53.36 74.43 53.58 76.35 55.04 77.02 C 57.01 78.60 59.90 75.48 58.37 73.60 C 57.61 72.05 55.36 71.97 54.32 73.23 Z" />
</g>
<g id="#52607eff">
<path fill="#52607e" opacity="1.00" d=" M 60.82 86.79 C 65.14 83.98 69.58 80.62 75.00 80.65 C 80.37 80.11 85.43 82.35 89.64 85.49 C 87.90 94.02 83.54 102.24 76.25 107.26 C 65.06 115.49 48.49 115.11 37.75 106.29 C 30.10 100.39 25.78 90.93 25.48 81.35 C 30.63 83.85 34.98 87.92 40.52 89.60 C 47.28 91.40 54.92 90.74 60.82 86.79 Z" />
</g>
</svg>
