<?xml version="1.0" encoding="UTF-8" ?>
<!DOCTYPE svg PUBLIC "-//W3C//DTD SVG 1.1//EN" "http://www.w3.org/Graphics/SVG/1.1/DTD/svg11.dtd">
<svg width="128pt" height="128pt" viewBox="0 0 128 128" version="1.1" xmlns="http://www.w3.org/2000/svg">
<g id="#000000ff">
<path fill="#000000" opacity="1.00" d=" M 0.30 0.00 L 2.95 0.00 C 12.66 3.67 22.33 7.45 32.04 11.09 C 33.68 11.78 36.34 12.57 35.75 14.91 C 34.81 16.53 33.39 17.79 32.14 19.16 C 34.57 20.48 37.24 21.87 38.48 24.50 C 39.53 27.15 39.90 30.01 40.56 32.77 C 40.48 32.82 40.33 32.91 40.26 32.96 L 39.91 31.53 C 38.69 34.36 36.83 36.82 34.43 38.74 C 50.11 54.39 65.87 69.97 81.36 85.80 C 81.31 83.04 83.04 81.41 85.76 81.39 C 75.53 71.59 65.71 61.37 55.62 51.43 C 53.55 49.20 50.21 47.21 51.26 43.67 C 51.96 43.52 53.36 43.21 54.06 43.06 C 57.52 46.09 60.72 49.41 63.96 52.69 C 71.27 45.42 78.50 38.08 85.85 30.85 C 87.94 29.01 88.69 26.27 89.90 23.87 C 91.05 21.47 93.66 20.43 95.81 19.15 C 94.36 17.51 90.43 14.64 93.33 12.55 C 103.70 8.04 114.41 4.27 124.89 0.00 L 127.52 0.00 C 127.64 0.08 127.88 0.24 128.00 0.32 L 128.00 2.52 C 124.58 12.12 120.68 21.55 117.18 31.14 C 116.46 32.67 116.09 34.59 114.66 35.64 C 112.07 36.46 110.58 33.41 108.77 32.14 C 107.46 34.57 106.08 37.26 103.44 38.50 C 100.82 39.59 97.96 39.89 95.23 40.58 C 95.20 40.49 95.14 40.31 95.12 40.22 L 96.20 39.80 C 93.42 38.64 91.08 36.77 89.20 34.45 C 82.02 41.76 74.73 48.96 67.50 56.22 C 68.92 57.62 70.33 59.04 71.75 60.45 C 74.95 57.44 77.75 53.98 81.22 51.28 C 82.32 51.22 83.42 51.20 84.53 51.21 C 84.39 52.66 84.92 54.42 83.66 55.51 C 81.02 58.49 78.02 61.12 75.27 64.00 C 81.23 69.98 87.21 75.94 93.18 81.91 C 96.38 82.01 99.62 81.78 102.78 82.40 C 104.95 83.79 106.60 85.84 108.43 87.62 C 114.90 94.29 121.72 100.61 128.00 107.44 L 128.00 109.25 C 123.56 112.14 117.84 111.59 112.86 112.94 C 111.78 117.96 111.65 123.26 109.49 128.00 L 107.33 128.00 C 99.50 120.73 92.20 112.90 84.52 105.47 C 80.71 102.57 82.27 97.32 81.85 93.20 C 75.89 87.24 69.94 81.28 63.97 75.33 C 58.00 81.29 52.03 87.25 46.08 93.22 C 45.97 96.42 46.18 99.65 45.59 102.80 C 44.38 104.78 42.55 106.28 40.95 107.92 C 34.11 114.54 27.63 121.54 20.63 128.00 L 18.65 128.00 C 15.96 123.49 16.31 117.93 15.07 112.94 C 10.04 111.83 4.71 111.77 0.00 109.51 L 0.00 107.36 C 6.14 100.72 12.76 94.54 19.07 88.06 C 21.06 86.12 22.83 83.89 25.19 82.38 C 28.35 81.79 31.58 82.00 34.78 81.91 C 40.74 75.95 46.69 69.97 52.65 64.00 C 45.22 56.54 37.76 49.10 30.34 41.61 C 28.26 39.45 25.09 39.06 22.72 37.33 C 21.08 35.97 20.22 33.96 19.17 32.16 C 17.81 33.40 16.49 34.68 14.97 35.71 C 12.53 36.06 11.99 33.44 11.17 31.74 C 7.51 22.16 3.76 12.60 0.00 3.06 L 0.00 0.46 C 0.08 0.35 0.23 0.12 0.30 0.00 M 6.92 6.90 C 9.69 14.17 12.58 21.39 15.35 28.66 C 19.89 24.26 24.39 19.81 28.75 15.23 C 21.46 12.49 14.24 9.57 6.92 6.90 M 99.32 15.33 C 103.66 19.93 108.12 24.42 112.73 28.75 C 115.44 21.46 118.29 14.22 121.04 6.94 C 113.80 9.74 106.57 12.56 99.32 15.33 M 27.36 24.44 C 23.51 25.81 22.87 31.63 26.34 33.80 C 29.43 36.17 34.40 33.90 34.70 30.04 C 35.32 26.18 30.94 22.77 27.36 24.44 M 96.41 24.48 C 92.69 25.90 92.06 31.51 95.37 33.71 C 98.42 36.19 103.50 33.99 103.84 30.09 C 104.52 26.16 100.01 22.71 96.41 24.48 M 42.06 81.54 C 44.86 81.16 46.83 83.06 46.46 85.88 C 51.00 81.07 55.79 76.51 60.44 71.80 C 59.02 70.38 57.62 68.95 56.20 67.53 C 51.45 72.16 46.93 77.04 42.06 81.54 M 27.13 87.09 C 24.78 89.45 22.43 91.79 20.08 94.14 C 23.61 94.09 27.13 94.00 30.66 93.86 C 32.93 91.50 35.26 89.19 37.56 86.86 C 34.08 86.91 30.61 87.00 27.13 87.09 M 90.35 86.85 C 92.69 89.19 95.04 91.52 97.35 93.89 C 100.85 93.99 104.35 94.08 107.85 94.15 C 105.51 91.78 103.16 89.43 100.81 87.09 C 97.32 87.00 93.83 86.91 90.35 86.85 M 34.12 97.35 C 33.98 100.88 33.90 104.40 33.83 107.93 C 36.19 105.59 38.53 103.23 40.89 100.89 C 40.97 97.39 41.06 93.89 41.14 90.39 C 38.80 92.72 36.48 95.06 34.12 97.35 M 86.80 90.38 C 86.86 93.87 86.95 97.35 87.03 100.84 C 89.37 103.21 91.73 105.57 94.09 107.92 C 94.03 104.38 93.94 100.84 93.79 97.30 C 91.43 95.02 89.12 92.70 86.80 90.38 M 15.17 99.37 C 12.36 101.39 10.22 104.20 7.69 106.55 C 10.64 106.90 13.61 108.07 16.58 107.77 C 19.67 105.02 22.42 101.92 25.38 99.05 C 21.98 99.16 18.56 99.04 15.17 99.37 M 102.54 99.04 C 104.95 101.45 107.34 103.88 109.73 106.30 C 112.31 109.63 116.81 106.57 120.20 106.56 C 117.82 104.07 115.40 101.63 112.91 99.26 C 109.45 99.21 105.99 99.12 102.54 99.04 M 20.28 111.38 C 19.88 114.32 21.11 117.35 21.45 120.31 C 23.75 117.93 26.29 115.77 28.41 113.22 C 29.18 109.77 28.70 106.11 28.94 102.58 C 26.10 105.57 22.97 108.27 20.28 111.38 M 98.98 102.58 C 99.05 106.07 99.14 109.56 99.23 113.06 C 101.65 115.47 104.06 117.89 106.49 120.30 C 107.02 117.36 107.55 114.41 107.95 111.44 C 104.88 108.57 101.99 105.52 98.98 102.58 Z" />
<path fill="#000000" opacity="1.00" d=" M 44.36 36.44 C 45.26 36.51 47.07 36.65 47.97 36.72 C 49.30 37.71 48.62 39.58 48.83 40.97 C 47.43 40.92 45.74 41.55 44.59 40.44 C 43.74 39.26 44.32 37.75 44.36 36.44 Z" />
<path fill="#000000" opacity="1.00" d=" M 86.92 48.81 C 86.37 46.51 87.14 43.21 90.23 44.24 C 91.17 45.05 92.59 46.85 91.19 47.91 C 90.33 49.44 88.29 48.58 86.92 48.81 Z" />
</g>
<g id="#52607eff">
<path fill="#52607e" opacity="1.00" d=" M 6.92 6.90 C 14.24 9.57 21.46 12.49 28.75 15.23 C 24.39 19.81 19.89 24.26 15.35 28.66 C 12.58 21.39 9.69 14.17 6.92 6.90 Z" />
<path fill="#52607e" opacity="1.00" d=" M 99.32 15.33 C 106.57 12.56 113.80 9.74 121.04 6.94 C 118.29 14.22 115.44 21.46 112.73 28.75 C 108.12 24.42 103.66 19.93 99.32 15.33 Z" />
</g>
<g id="#7ccafdff">
<path fill="#7ccafd" opacity="1.00" d=" M 27.36 24.44 C 30.94 22.77 35.32 26.18 34.70 30.04 C 34.40 33.90 29.43 36.17 26.34 33.80 C 22.87 31.63 23.51 25.81 27.36 24.44 Z" />
<path fill="#7ccafd" opacity="1.00" d=" M 96.41 24.48 C 100.01 22.71 104.52 26.16 103.84 30.09 C 103.50 33.99 98.42 36.19 95.37 33.71 C 92.06 31.51 92.69 25.90 96.41 24.48 Z" />
</g>
<g id="#ede6f5ff">
<path fill="#ede6f5" opacity="1.00" d=" M 40.26 32.96 C 40.33 32.91 40.48 32.82 40.56 32.77 C 41.78 34.04 43.01 35.31 44.36 36.44 C 44.32 37.75 43.74 39.26 44.59 40.44 C 45.74 41.55 47.43 40.92 48.83 40.97 C 49.64 41.87 50.45 42.77 51.26 43.67 C 50.21 47.21 53.55 49.20 55.62 51.43 C 65.71 61.37 75.53 71.59 85.76 81.39 C 83.04 81.41 81.31 83.04 81.36 85.80 C 65.87 69.97 50.11 54.39 34.43 38.74 C 36.83 36.82 38.69 34.36 39.91 31.53 L 40.26 32.96 Z" />
<path fill="#ede6f5" opacity="1.00" d=" M 67.50 56.22 C 74.73 48.96 82.02 41.76 89.20 34.45 C 91.08 36.77 93.42 38.64 96.20 39.80 L 95.12 40.22 C 95.14 40.31 95.20 40.49 95.23 40.58 C 93.90 41.81 92.64 43.12 91.24 44.27 L 90.23 44.24 C 87.14 43.21 86.37 46.51 86.92 48.81 C 86.11 49.61 85.32 50.41 84.53 51.21 C 83.42 51.20 82.32 51.22 81.22 51.28 C 77.75 53.98 74.95 57.44 71.75 60.45 C 70.33 59.04 68.92 57.62 67.50 56.22 Z" />
<path fill="#ede6f5" opacity="1.00" d=" M 42.06 81.54 C 46.93 77.04 51.45 72.16 56.20 67.53 C 57.62 68.95 59.02 70.38 60.44 71.80 C 55.79 76.51 51.00 81.07 46.46 85.88 C 46.83 83.06 44.86 81.16 42.06 81.54 Z" />
</g>
<g id="#f05f90ff">
<path fill="#f05f90" opacity="1.00" d=" M 27.13 87.09 C 30.61 87.00 34.08 86.91 37.56 86.86 C 35.26 89.19 32.93 91.50 30.66 93.86 C 27.13 94.00 23.61 94.09 20.08 94.14 C 22.43 91.79 24.78 89.45 27.13 87.09 Z" />
<path fill="#f05f90" opacity="1.00" d=" M 86.80 90.38 C 89.12 92.70 91.43 95.02 93.79 97.30 C 93.94 100.84 94.03 104.38 94.09 107.92 C 91.73 105.57 89.37 103.21 87.03 100.84 C 86.95 97.35 86.86 93.87 86.80 90.38 Z" />
<path fill="#f05f90" opacity="1.00" d=" M 102.54 99.04 C 105.99 99.12 109.45 99.21 112.91 99.26 C 115.40 101.63 117.82 104.07 120.20 106.56 C 116.81 106.57 112.31 109.63 109.73 106.30 C 107.34 103.88 104.95 101.45 102.54 99.04 Z" />
<path fill="#f05f90" opacity="1.00" d=" M 20.28 111.38 C 22.97 108.27 26.10 105.57 28.94 102.58 C 28.70 106.11 29.18 109.77 28.41 113.22 C 26.29 115.77 23.75 117.93 21.45 120.31 C 21.11 117.35 19.88 114.32 20.28 111.38 Z" />
</g>
<g id="#ffe681ff">
<path fill="#ffe681" opacity="1.00" d=" M 90.35 86.85 C 93.83 86.91 97.32 87.00 100.81 87.09 C 103.16 89.43 105.51 91.78 107.85 94.15 C 104.35 94.08 100.85 93.99 97.35 93.89 C 95.04 91.52 92.69 89.19 90.35 86.85 Z" />
<path fill="#ffe681" opacity="1.00" d=" M 34.12 97.35 C 36.48 95.06 38.80 92.72 41.14 90.39 C 41.06 93.89 40.97 97.39 40.89 100.89 C 38.53 103.23 36.19 105.59 33.83 107.93 C 33.90 104.40 33.98 100.88 34.12 97.35 Z" />
<path fill="#ffe681" opacity="1.00" d=" M 15.17 99.37 C 18.56 99.04 21.98 99.16 25.38 99.05 C 22.42 101.92 19.67 105.02 16.58 107.77 C 13.61 108.07 10.64 106.90 7.69 106.55 C 10.22 104.20 12.36 101.39 15.17 99.37 Z" />
<path fill="#ffe681" opacity="1.00" d=" M 98.98 102.58 C 101.99 105.52 104.88 108.57 107.95 111.44 C 107.55 114.41 107.02 117.36 106.49 120.30 C 104.06 117.89 101.65 115.47 99.23 113.06 C 99.14 109.56 99.05 106.07 98.98 102.58 Z" />
</g>
</svg>
